<?xml version="1.0" encoding="UTF-8"?>
<svg width="8px" height="8px" viewBox="0 0 8 8" version="1.1" xmlns="http://www.w3.org/2000/svg" xmlns:xlink="http://www.w3.org/1999/xlink">
    <!-- Generator: Sketch 49 (51002) - http://www.bohemiancoding.com/sketch -->
    <title>Fill 2 Copy</title>
    <desc>Created with Sketch.</desc>
    <defs></defs>
    <g id="Page-1" stroke="none" stroke-width="1" fill="none" fill-rule="evenodd">
        <g id="STORE" transform="translate(-269.000000, -172.000000)" fill="#000000">
            <g id="Menu" transform="translate(150.000000, 166.000000)">
                <path d="M120.92605,9.99855459 L119.593661,11.3304623 C119.002773,11.9211365 119.002773,12.8129293 119.593661,13.4035442 C119.889105,13.6988813 120.335162,13.8494406 120.630606,13.8494406 C120.92605,13.8494406 121.372108,13.6988813 121.667552,13.4035442 L122.999941,12.0716365 L124.482944,13.5541036 C124.778387,13.8494406 125.224445,14 125.519889,14 C125.815333,14 126.26139,13.8494406 126.556834,13.5541036 C127.147722,12.9634294 127.147722,12.0716365 126.556834,11.4810216 L125.073831,9.99855459 L126.40622,8.6666469 C126.997108,8.07597273 126.997108,7.18417985 126.40622,6.59356498 C125.815333,6.00289081 124.923218,6.00289081 124.332389,6.59356498 L123,7.92547268 L121.516997,6.44300563 C120.926109,5.85233146 120.033994,5.85233146 119.443166,6.44300563 C118.852278,7.0336798 118.852278,7.92547268 119.443166,8.51608755 L120.92605,9.99855459 Z" id="Fill-2-Copy"></path>
            </g>
        </g>
    </g>
</svg>