<?xml version="1.0" encoding="utf-8"?>
<!-- Generator: Adobe Illustrator 22.1.0, SVG Export Plug-In . SVG Version: 6.00 Build 0)  -->
<svg version="1.1" id="Layer_1" xmlns="http://www.w3.org/2000/svg" xmlns:xlink="http://www.w3.org/1999/xlink" x="0px" y="0px"
	 viewBox="0 0 60 54" style="enable-background:new 0 0 60 54;" xml:space="preserve">
<style type="text/css">
	.st0{clip-path:url(#SVGID_2_);}
	.st1{clip-path:url(#SVGID_4_);fill:#FFFFFF;}
</style>
<g>
	<g>
		<defs>
			<path id="SVGID_1_" d="M16.4,1.9L16.4,1.9c0.1-0.6,0.7-0.9,1.2-0.8c0.4,0.1,0.7,0.4,0.8,0.8c0,0.2,0,0.3,0,0.5L17.7,6
				C17.6,6.6,17,7,16.5,6.8c-0.6-0.1-0.9-0.7-0.8-1.2L16.4,1.9z M26.3,14L26.3,14c-0.3-0.5-0.1-1.1,0.4-1.3l5.5-2.8
				c0.5-0.3,1.2-0.1,1.5,0.4c0,0.1,0.1,0.2,0.1,0.2c0.1,0.4-0.1,0.9-0.5,1.1l-5.5,2.8C27.3,14.7,26.6,14.5,26.3,14z M21.7,8l4.6-4.6
				c0.4-0.4,1.1-0.4,1.5,0C27.9,3.5,28,3.6,28,3.8c0.1,0.3,0,0.7-0.3,1l-4.6,4.6c-0.4,0.4-1.1,0.4-1.5,0C21.3,9,21.3,8.4,21.7,8z
				 M48.8,17.7L48.8,17.7c0.4-0.9,1.3-1.4,2.4-1.2c1.3,0.2,2.9,1.2,3.4,3.3c0,0.1,0.1,0.3,0.1,0.4c0.7,3.3-1,6-5.2,8.6
				c0.1,0.1,0.2,0.2,0.2,0.2c0.5,0.4,0.5,1.1,0,1.5c-0.4,0.4-1.1,0.5-1.6,0c0,0-0.3-0.3-0.6-0.7c-0.3,0.1-0.6,0.3-0.9,0.5
				c0.3,0.6,0.7,1,0.7,1c0.4,0.4,0.5,1.1,0,1.5c-0.4,0.4-1.1,0.4-1.6,0c-0.1,0-0.7-0.6-1.1-1.6c-0.3,0.2-0.7,0.4-1.1,0.6
				c-1.8,1-3.6,2.1-3.7,2.9c0,0,0,0.2,0.2,0.4c0.4,0.4,0.8,0.2,0.8,0.1c0.3-0.2,0.8-0.3,1.1-0.1c0.2,0.1,0.3,0.2,0.5,0.3
				c0.4,0.5,0.3,1.2-0.2,1.5c-0.7,0.5-2.3,1-3.7-0.3c-0.9-0.8-1-1.7-1-2.3c0.3-1.9,2.8-3.5,6.4-5.3c0-0.7,0-1.4,0.3-2.2
				c0.2-0.6,0.8-0.9,1.4-0.7c0.1,0,0.2,0.1,0.3,0.1c0.2,0.1,0.3,0.3,0.4,0.5c0-0.6,0-1.2,0.2-1.8c0-0.1,0.1-0.3,0.1-0.4
				c0.1-0.2,0.1-0.3,0.3-0.4c0.3-0.3,0.7-0.4,1.2-0.3c0.4,0.1,0.7,0.4,0.7,0.8c0.1,0.2,0.1,0.4,0,0.6c-0.2,0.5-0.2,0.9-0.2,1.3
				c3.8-2.4,4.1-4.3,3.8-6c-0.2-0.8-0.6-1.5-1.2-1.8c-0.3-0.1-0.5-0.2-0.5-0.1c-0.3,0.5-0.9,0.8-1.5,0.5c0,0,0,0,0,0
				C48.8,18.9,48.6,18.3,48.8,17.7z M48.2,10L48.2,10c0-0.9,0.5-1.7,1.2-2.3c1.5-1.3,4-1.2,5.4,0.1c0.4,0.4,0.8,0.9,0.9,1.4
				c0.1,0.3,0.1,0.5,0.1,0.8c0,0,0,0,0,0c0,0,0,0,0,0c0,0.9-0.4,1.8-1.2,2.5c-1.5,1.3-4,1.2-5.4-0.1c-0.4-0.4-0.8-0.9-0.9-1.4
				C48.2,10.8,48.2,10.4,48.2,10C48.2,10.1,48.2,10.1,48.2,10C48.2,10.1,48.2,10.1,48.2,10z M33.7,34.1L33.7,34.1
				c0.9,0.4,1.6,1.2,1.9,2.1c0.2,0.7,0.1,1.5-0.2,2.1c-0.3,0.6-0.8,1.2-1.5,1.6c-0.3,0.2-0.7,0.4-1.1,0.5c0,0-0.1,0-0.1,0
				c-1,0.2-2,0.1-2.8-0.4c0,0,0,0,0,0c0,0,0,0,0,0c-0.8-0.4-1.5-1.1-1.8-2c-0.2-0.5-0.2-1.1,0-1.6c0.1-0.4,0.3-0.8,0.6-1.2
				c0.4-0.5,1.1-1,1.8-1.2c0.1,0,0.2-0.1,0.3-0.1c0.9-0.2,1.9-0.1,2.7,0.2C33.6,34.1,33.6,34.1,33.7,34.1
				C33.7,34.1,33.7,34.1,33.7,34.1z M43.4,49.6L43.4,49.6c-1.4-1.4-4.3-4.2-7.4-7.2c-0.5,0.1-0.9,0.2-1.2,0.3l7.9,7.3L43.4,49.6z
				 M4.1,13.5l22.1,21.1c0.2-0.4,0.5-0.8,0.9-1.1c-1.1-1.1-2-2-2.5-2.5c-0.5-0.5-0.9-1-1-1.7c-0.4-1.6,0.4-3.1,1.5-4.3
				c-0.6,0.6-1.3,1.1-2.3,1.3c-1.6,0.3-3.1-0.3-4.7-1.8c-2.3-2.2-5.5-5.2-8.1-7.6c0,0-0.1-0.1-0.1-0.1c-2.3-2.2-4.2-3.9-4.6-4.3
				L4.1,13.5z M15.6,13.6l-6-4.8L7,10.9c0.4,0.4,1.4,1.2,2.6,2.3c0.5,0.4,1,0.9,1.5,1.3l0.8-0.2L15.6,13.6z M16.2,16.9l2.3-0.5
				l-1-0.9l-2.7,0.6l-2,0.4c0.3,0.3,0.6,0.6,0.9,0.9L16.2,16.9z M24.2,21.8l-1.5-1.3l-2.6-2.2L19,18.6l-3.3,0.7
				c1.4,1.3,2.7,2.5,3.8,3.6c1,0.9,1.9,1.3,2.6,1.2C23.1,23.9,23.9,22.6,24.2,21.8z M26.2,23.3l-0.2-0.2c-0.2,0.3-0.4,0.6-0.7,1
				C25.5,23.8,25.9,23.6,26.2,23.3z M55.4,9L55.4,9c-0.8-3-2.6-4.4-4.8-3.9c-2.3,0.5-4.6,3-4.1,5.6c2.2,11.2-2.2,18.4-12.9,21.5
				c0,0-0.1,0-0.1,0c0,0-1.9,0.4-3.6,1.4c-0.6,0.4-1.2,0.8-1.7,1.4c-0.3,0.3-0.6,0.7-0.8,1.2c-0.2,0.4-0.3,0.8-0.3,1.2
				c0,0.6,0,1.1,0.1,1.5c0,0.1,0,0.2,0.1,0.2c0.3,1.3,1.4,1.9,2.4,2.1c1.4,0.3,2.9,0.1,3,0.1c0,0,0.1,0,0.2,0c0.2,0,0.7-0.1,1.3-0.3
				c0.6-0.2,1.4-0.4,2.3-0.7c6.1-2.1,17.4-7.9,19.2-22.5C56.1,14.1,56,11.2,55.4,9L55.4,9z M44.9,11.3L44.9,11.3
				c-0.8-3.8,2.4-7.3,5.8-8.1c2.7-0.6,6.1,0.5,7.5,5.4l0,0c0.7,2.5,0.8,5.7,0.3,9.5C56.7,33,45.4,39.4,38.6,42
				c3.9,3.9,7.1,7.2,7.4,7.5c0.1,0.1,0.2,0.3,0.3,0.5c0,0.1,0,0.3,0,0.4c0,0.3-0.2,0.6-0.5,0.8l-2.5,1.6c-0.4,0.3-1,0.2-1.4-0.1
				l-9.5-9c-2.4,0.2-6-0.4-6.9-3.8c-0.2-0.7-0.3-1.6-0.2-2.5c0-0.1,0-0.3,0.1-0.4L1.6,14.1c-0.2-0.2-0.3-0.5-0.3-0.8
				c0-0.3,0.2-0.6,0.4-0.8l7.1-5.8c0.4-0.3,1-0.3,1.4,0l18.9,16c0.3,0.2,0.4,0.5,0.4,0.9c0,0.3-0.2,0.6-0.5,0.8
				c-1.3,0.8-3.7,2.9-3.3,4.3c0.1,0.2,0.2,0.5,0.5,0.7c0.5,0.5,1.5,1.4,2.7,2.6c2-1.3,4.3-1.8,4.7-1.9
				C43.1,27.5,46.9,21.3,44.9,11.3z"/>
		</defs>
		<clipPath id="SVGID_2_">
			<use xlink:href="#SVGID_1_"  style="overflow:visible;"/>
		</clipPath>
		<g class="st0">
			<defs>
				<rect id="SVGID_3_" x="1.2" y="1.1" width="57.5" height="51.8"/>
			</defs>
			<clipPath id="SVGID_4_">
				<use xlink:href="#SVGID_3_"  style="overflow:visible;"/>
			</clipPath>
			<rect x="-3.6" y="-3.7" class="st1" width="67.1" height="61.4"/>
		</g>
	</g>
</g>
</svg>
