<?xml version="1.0" encoding="utf-8"?>
<!-- Generator: Adobe Illustrator 22.1.0, SVG Export Plug-In . SVG Version: 6.00 Build 0)  -->
<svg version="1.1" id="Layer_1" xmlns="http://www.w3.org/2000/svg" xmlns:xlink="http://www.w3.org/1999/xlink" x="0px" y="0px"
	 viewBox="0 0 395 47" style="enable-background:new 0 0 395 47;" xml:space="preserve">
<style type="text/css">
	.st0{clip-path:url(#SVGID_2_);}
	.st1{clip-path:url(#SVGID_4_);}
	.st2{clip-path:url(#SVGID_6_);}
	.st3{clip-path:url(#SVGID_8_);}
</style>
<title>logo_medium</title>
<desc>Created with Sketch.</desc>
<g>
	<g>
		<defs>
			<path id="SVGID_1_" d="M379.8,30.1h-6.7C373,42,395,41.8,395,30.5c0-6.7-5.2-7.5-10.6-8.1c-2.4-0.3-4.4-0.7-4.3-2.7
				c0.2-3.2,7.5-3.5,7.5,0.1h6.6c0.2-11.6-20.8-11.6-20.6,0c0.1,5.8,3.9,7.8,9.8,8.3c2.7,0.2,4.9,0.6,4.9,2.5
				C388.3,33.6,379.8,33.6,379.8,30.1z M350.9,17.7v14.4h3.3c8.6,0,8.6-14.4,0-14.4H350.9z M354.2,11.5c17.6,0.1,17.6,26.8,0,26.9
				H344V11.5H354.2z M332.3,38.4h2.5v-27h-7.1v13.2L314,11.3h-2.5v27h7.1V25.1L332.3,38.4z M295,29.1l-3.1-7.1l-3,7.1H295z
				 M298.8,38.4l-1.6-3.4h-10.6l-1.6,3.4h-6.8v-1l12.2-26.3h3l12.2,26.3v1H298.8z M271.7,11.5h-7.1v9.8h-8.3v-9.8h-7.1v26.9h7.1
				V27.6h8.3v10.8h7.1V11.5z M148.7,11.5h-7.1v9.8h-8.3v-9.8h-7.1v26.9h7.1V27.6h8.3v10.8h7.1V11.5z M91.7,24.9
				c0,9.2,7,13.8,13.9,13.8c5,0,10.1-2.2,12-7.8c0.9-2.6,0.9-5.2,0.8-7.9h-12.8v6h5.7c-1.2,2.6-3,3.3-5.8,3.3
				c-4.1,0-6.7-2.9-6.7-7.4c0-4.1,2.4-7.5,6.7-7.5c2.7,0,4.5,0.9,5.6,3.2h6.8c-1.3-6.7-7-9.5-12.4-9.5
				C98.7,11.1,91.7,15.7,91.7,24.9z M73.5,32.6c-2,0-4.1-1.1-4.1-3.3V11.5h-6.6v18c0,5.9,5.2,9.3,10.7,9.3c5.6,0,10.7-3.4,10.7-9.3
				v-18h-6.6v17.8C77.6,31.5,75.5,32.6,73.5,32.6z M34.9,25c0,9.8,13.5,9.8,13.5,0C48.4,15.3,34.9,15.3,34.9,25z M55.5,25
				c0-18.6-27.7-18.6-27.7,0C27.8,43.6,55.5,43.6,55.5,25z M11.8,24.3c3.7,0,3.9-6.7,0-6.7c-1.6,0-3.3,0-4.9,0v6.7H11.8z M17.6,28.8
				l5.3,8.5v1h-7.7l-4.6-7.9H6.9v7.9H0V11.5h11.8C22.5,11.5,24.4,24.2,17.6,28.8z"/>
		</defs>
		<clipPath id="SVGID_2_">
			<use xlink:href="#SVGID_1_"  style="overflow:visible;"/>
		</clipPath>
		<g class="st0">
			<defs>
				<rect id="SVGID_3_" x="-443" y="-40" width="1280" height="1468"/>
			</defs>
			<clipPath id="SVGID_4_">
				<use xlink:href="#SVGID_3_"  style="overflow:visible;"/>
			</clipPath>
			<rect x="-5" y="6" class="st1" width="405" height="38"/>
		</g>
	</g>
	<g>
		<defs>
			<path id="SVGID_5_" d="M182.3,0.8L182.3,0.8c0.1-0.5,0.6-0.9,1.2-0.7c0.4,0.1,0.7,0.4,0.8,0.7c0,0.1,0,0.3,0,0.4l-0.7,3.4
				c-0.1,0.5-0.6,0.9-1.2,0.8c-0.5-0.1-0.9-0.6-0.8-1.1L182.3,0.8z M191.4,12.4L191.4,12.4c-0.3-0.5-0.1-1.1,0.4-1.3l5-2.8
				c0.5-0.3,1.1-0.1,1.4,0.4c0,0.1,0.1,0.2,0.1,0.2c0.1,0.4-0.1,0.9-0.5,1.1l-5,2.8C192.3,13,191.7,12.8,191.4,12.4z M187.5,6.3
				l4.3-4.3c0.4-0.4,1-0.4,1.4,0c0.1,0.1,0.2,0.3,0.3,0.4c0.1,0.3,0,0.7-0.2,0.9L189,7.6c-0.4,0.4-1,0.4-1.4,0
				C187.2,7.3,187.1,6.6,187.5,6.3z M211.5,15.1L211.5,15.1c0.4-0.8,1.2-1.2,2.1-1.1c1.1,0.1,2.5,1.1,3,2.9c0,0.1,0.1,0.3,0.1,0.4
				c0.6,3-0.8,5.3-4.6,7.6c0.1,0.1,0.2,0.2,0.2,0.2c0.4,0.4,0.4,1,0,1.4c-0.4,0.4-1,0.4-1.4,0c0,0-0.3-0.3-0.5-0.6
				c-0.3,0.1-0.5,0.3-0.8,0.4c0.2,0.6,0.6,0.9,0.6,0.9c0.4,0.4,0.4,1,0,1.4c-0.4,0.4-1,0.4-1.4,0c0,0-0.6-0.5-1-1.4
				c-0.3,0.2-0.6,0.3-0.9,0.5c-1.6,0.9-3.2,1.9-3.2,2.6c0,0,0,0.1,0.2,0.3c0.4,0.3,0.7,0.1,0.7,0.1c0.3-0.2,0.7-0.2,1-0.1
				c0.2,0.1,0.3,0.2,0.4,0.3c0.3,0.4,0.2,1-0.2,1.4c-0.6,0.4-2,0.9-3.3-0.2c-0.8-0.7-0.9-1.5-0.8-2c0.2-1.7,2.5-3.1,5.7-4.8
				c0-0.6,0-1.2,0.3-1.9c0.2-0.5,0.7-0.8,1.2-0.6c0.1,0,0.2,0.1,0.2,0.1c0.2,0.1,0.3,0.3,0.4,0.4c0-0.5,0-1,0.2-1.6
				c0-0.1,0.1-0.2,0.1-0.4c0-0.1,0.1-0.3,0.2-0.4c0.3-0.3,0.6-0.4,1-0.3c0.3,0.1,0.6,0.4,0.7,0.7c0,0.2,0,0.4,0,0.5
				c-0.1,0.4-0.2,0.8-0.2,1.2c3.4-2.2,3.6-3.8,3.3-5.4c-0.1-0.7-0.5-1.3-1-1.6c-0.2-0.1-0.4-0.1-0.5-0.1c-0.2,0.5-0.8,0.7-1.3,0.5
				c0,0,0,0,0,0C211.4,16.2,211.2,15.6,211.5,15.1z M211.4,7.9L211.4,7.9c0-0.8,0.4-1.6,1-2.2c1.3-1.2,3.5-1.2,4.7,0.1
				c0.4,0.4,0.7,0.9,0.8,1.4c0.1,0.2,0.1,0.5,0.1,0.7c0,0,0,0,0,0c0,0,0,0,0,0c0,0.9-0.3,1.8-1,2.4c-1.3,1.2-3.5,1.2-4.7-0.1
				c-0.4-0.4-0.7-0.9-0.8-1.4C211.4,8.6,211.4,8.3,211.4,7.9C211.4,8,211.4,8,211.4,7.9C211.4,7.9,211.4,7.9,211.4,7.9z M198.4,30.1
				L198.4,30.1c0.8,0.4,1.4,1.1,1.7,2c0.2,0.7,0.1,1.4-0.1,2c-0.2,0.6-0.7,1.1-1.3,1.5c-0.3,0.2-0.6,0.3-1,0.4c0,0-0.1,0-0.1,0
				c-0.9,0.2-1.7,0.1-2.5-0.3c0,0,0,0,0,0c0,0,0,0,0,0c-0.7-0.4-1.3-1.1-1.5-2c-0.1-0.5-0.1-1.1,0-1.6c0.1-0.4,0.3-0.8,0.5-1.2
				c0.4-0.5,0.9-0.9,1.6-1.2c0.1,0,0.2-0.1,0.2-0.1c0.8-0.2,1.6-0.1,2.3,0.2C198.3,30.1,198.4,30.1,198.4,30.1
				C198.4,30.1,198.4,30.1,198.4,30.1z M207.2,44.4L207.2,44.4c-1.3-1.3-3.8-3.8-6.5-6.6c-0.4,0.1-0.8,0.2-1.1,0.3l7,6.7L207.2,44.4
				z M171.5,11l20.1,19.3c0.2-0.4,0.5-0.7,0.8-1c-1-1-1.8-1.8-2.3-2.3c-0.5-0.4-0.8-1-0.9-1.5c-0.4-1.4,0.4-2.9,1.4-4
				c-0.5,0.5-1.2,1-2.1,1.2c-1.4,0.3-2.9-0.2-4.3-1.6c-2.1-2-5-4.7-7.4-7c0,0-0.1-0.1-0.1-0.1c-2.1-2-3.8-3.6-4.2-3.9L171.5,11z
				 M181.7,11.5L176.4,7l-2.4,2c0.4,0.4,1.2,1.2,2.4,2.2c0.4,0.4,0.9,0.8,1.3,1.2l0.8-0.2L181.7,11.5z M182.5,14.3l2-0.4l-0.9-0.8
				l-2.4,0.5l-1.7,0.4c0.3,0.3,0.5,0.5,0.8,0.8L182.5,14.3z M190.2,18.7l-1.4-1.2l-2.5-2.1l-1.1,0.2l-3.2,0.7
				c1.3,1.2,2.5,2.4,3.6,3.4c0.9,0.9,1.8,1.3,2.5,1.1C189,20.7,189.8,19.4,190.2,18.7z M192,20.3l-0.2-0.2c-0.2,0.3-0.5,0.7-0.8,1.1
				C191.3,20.8,191.6,20.5,192,20.3z M218.5,7.2L218.5,7.2c-0.7-2.7-2.3-4-4.4-3.5c-2.1,0.5-4.2,2.8-3.7,5.1
				c2,10.1-2,16.7-11.8,19.5c0,0-0.1,0-0.1,0c0,0-1.7,0.3-3.3,1.3c-0.6,0.3-1.1,0.7-1.5,1.2c-0.3,0.3-0.5,0.7-0.7,1.1
				c-0.2,0.3-0.3,0.7-0.3,1.1c0,0.5,0,1,0.1,1.4c0,0.1,0,0.2,0,0.2c0.3,1.2,1.2,1.7,2.2,1.9c1.3,0.3,2.6,0.1,2.7,0.1
				c0,0,0.1,0,0.2,0c0.2,0,0.6-0.1,1.2-0.3c0.6-0.1,1.3-0.4,2.1-0.6c5.6-1.9,15.9-7.1,17.5-20.4C219.2,11.8,219.1,9.2,218.5,7.2
				L218.5,7.2z M208.5,9.1L208.5,9.1c-0.7-3.5,2.2-6.7,5.2-7.4c2.5-0.5,5.5,0.5,6.7,4.9l0,0c0.6,2.2,0.7,5.2,0.3,8.7
				c-1.6,13.5-11.9,19.4-18,21.7c3.5,3.5,6.5,6.6,6.7,6.8c0.1,0.1,0.2,0.3,0.2,0.4c0,0.1,0,0.2,0,0.4c0,0.3-0.2,0.5-0.4,0.7
				l-2.3,1.5c-0.4,0.3-0.9,0.2-1.2-0.1l-8.5-8.2c-2.2,0.2-5.4-0.4-6.3-3.5c-0.2-0.7-0.2-1.4-0.2-2.3c0-0.1,0-0.2,0.1-0.4l-21.6-20.7
				c-0.2-0.2-0.3-0.5-0.3-0.7c0-0.3,0.1-0.5,0.4-0.7l6.4-5.3c0.4-0.3,0.9-0.3,1.3,0l17.1,14.6c0.2,0.2,0.4,0.5,0.3,0.8
				c0,0.3-0.2,0.6-0.4,0.7c-1.1,0.7-3.4,2.7-3,4c0.1,0.2,0.2,0.4,0.4,0.6c0.5,0.4,1.3,1.3,2.4,2.4c1.8-1.2,3.9-1.7,4.2-1.7
				C206.9,23.9,210.2,18.2,208.5,9.1z"/>
		</defs>
		<clipPath id="SVGID_6_">
			<use xlink:href="#SVGID_5_"  style="overflow:visible;"/>
		</clipPath>
		<g class="st2">
			<defs>
				<rect id="SVGID_7_" x="-443" y="-40" width="1280" height="1468"/>
			</defs>
			<clipPath id="SVGID_8_">
				<use xlink:href="#SVGID_7_"  style="overflow:visible;"/>
			</clipPath>
			<rect x="164" y="-5" class="st3" width="62" height="57"/>
		</g>
	</g>
</g>
</svg>
