<?xml version="1.0" encoding="utf-8"?>
<!-- Generator: Adobe Illustrator 22.0.1, SVG Export Plug-In . SVG Version: 6.00 Build 0)  -->
<svg version="1.1" id="Layer_1" xmlns="http://www.w3.org/2000/svg" xmlns:xlink="http://www.w3.org/1999/xlink" x="0px" y="0px"
	 viewBox="0 0 391.6 67.3" style="enable-background:new 0 0 391.6 67.3;" xml:space="preserve">
<metadata><?xpacket begin="﻿" id="W5M0MpCehiHzreSzNTczkc9d"?>
<x:xmpmeta xmlns:x="adobe:ns:meta/" x:xmptk="Adobe XMP Core 5.6-c143 79.161210, 2017/08/11-10:28:36        ">
   <rdf:RDF xmlns:rdf="http://www.w3.org/1999/02/22-rdf-syntax-ns#">
      <rdf:Description rdf:about=""/>
   </rdf:RDF>
</x:xmpmeta>
                                                                                                    
                                                                                                    
                                                                                                    
                                                                                                    
                                                                                                    
                                                                                                    
                                                                                                    
                                                                                                    
                                                                                                    
                                                                                                    
                                                                                                    
                                                                                                    
                                                                                                    
                                                                                                    
                                                                                                    
                                                                                                    
                                                                                                    
                                                                                                    
                                                                                                    
                                                                                                    
                           
<?xpacket end="w"?></metadata>
<style type="text/css">
	.st0{fill:#6DCEF5;}
	.st1{fill:#469AC1;}
	.st2{fill:#FFFFFF;}
	.st3{fill:#2595BA;}
</style>
<path class="st0" d="M33.6,3C16,3,1.8,16.9,1.8,34v31h31.7c17.5,0,31.7-13.9,31.7-31S51.1,3,33.6,3"/>
<path class="st1" d="M97.1,34l13.1-12.8C105.1,10.5,94.1,3,81.2,3C63.7,3,49.4,16.9,49.4,34s14.2,31,31.7,31
	c12.9,0,24-7.5,28.9-18.3L97.1,34z"/>
<g>
	<path class="st2" d="M151.1,32.6c-0.2,4.8-2.1,7.4-8.3,7.4l-4.2,0v6.3h-4.4V23.3h8.6c6.2,0,8.1,2.6,8.3,7.4
		C151.2,31.5,151.2,31.8,151.1,32.6z M146.7,30.6c-0.1-1.8-0.6-3.5-3.9-3.5h-4.2l0,9h4.2c3.3,0,3.8-1.7,3.9-3.5
		C146.7,31.9,146.7,31.4,146.7,30.6z"/>
	<path class="st2" d="M167.3,42h-8l-1.4,4.4h-4.6l8-23.1h4.1l8.2,23.1h-4.9L167.3,42z M166.3,38.3l-2.9-9.8l-2.9,9.8H166.3z"/>
	<path class="st2" d="M192.1,46.4l-4-7.8h-0.3l-5.1,0v7.7h-4.4V23.3h9.5c5.9,0,8,2.9,8.2,6.8c0,0.7,0,1,0,1.7
		c-0.1,2.8-1.2,5-3.8,6.1l4.6,8.5L192.1,46.4z M187.8,34.8c2.7,0,3.6-1.2,3.7-3.1c0-0.6,0-0.9,0-1.4c-0.1-1.8-0.8-3-3.7-3h-5v7.6
		H187.8z"/>
	<path class="st2" d="M217.8,23.3v3.8H211v19.2h-4.4V27.1h-6.7v-3.8H217.8z"/>
	<path class="st2" d="M241.6,23.3v23.1h-3.6l-10.6-14.5v14.5H223V23.3h3l11.2,15.9V23.3H241.6z"/>
	<path class="st2" d="M253,27.1v5.5h8.3l0,3.7l-8.3,0v6.1h10v3.8h-14.5V23.3h14v3.8H253z"/>
	<path class="st2" d="M282.6,46.4l-4-7.8h-0.3l-5.1,0v7.7h-4.4V23.3h9.5c5.9,0,8,2.9,8.2,6.8c0,0.7,0,1,0,1.7
		c-0.1,2.8-1.2,5-3.8,6.1l4.6,8.5L282.6,46.4z M278.3,34.8c2.7,0,3.6-1.2,3.7-3.1c0-0.6,0-0.9,0-1.4c-0.1-1.8-0.8-3-3.7-3h-5v7.6
		H278.3z"/>
	<path class="st2" d="M307.9,41.5v4.1c-1.7,0.6-3.5,1.1-6.4,1.1c-7.1,0-9.5-3.3-9.8-10.3c0-1,0-2,0-3c0.3-7,2.7-10.4,9.8-10.4
		c2.7,0,4.5,0.5,6.4,1.4v4.1c-2-0.8-4.3-1.4-6.4-1.4c-4.2,0-5.1,2.3-5.3,6.3c0,1,0,2,0,3c0.2,4,1.1,6.3,5.3,6.3
		C303.9,42.6,305.7,42.2,307.9,41.5z"/>
	<path class="st2" d="M332.5,37c-0.3,6.4-3,9.6-9.8,9.6c-6.9,0-9.6-3.2-9.9-9.6c-0.1-1.6-0.1-2.8,0-4.4c0.3-6.4,3-9.7,9.9-9.7
		c6.9,0,9.5,3.3,9.8,9.7C332.5,34.2,332.5,35.5,332.5,37z M322.6,27c-4,0-5.2,1.9-5.4,5.6c-0.1,1.6-0.1,2.8,0,4.4
		c0.2,3.7,1.4,5.6,5.4,5.6c3.9,0,5.2-1.9,5.4-5.6c0.1-1.6,0.1-2.8,0-4.4C327.8,28.9,326.6,27,322.6,27z"/>
	<path class="st2" d="M360,23.3v23.1h-4.3v-15l-4.8,8.7h-3.2l-4.8-8.7v14.9h-4.3V23.3h4.1l6.6,12.2l6.6-12.2H360z"/>
	<path class="st2" d="M388.3,23.3v23.1H384v-15l-4.8,8.7H376l-4.8-8.7v14.9H367V23.3h4.1l6.6,12.2l6.6-12.2H388.3z"/>
</g>
<path class="st3" d="M49.4,34c0,7.9,3,15.1,7.9,20.5c4.9-5.5,7.9-12.7,7.9-20.5s-3-15.1-7.9-20.5C52.4,19,49.4,26.1,49.4,34"/>
</svg>
